<?xml version="1.0" encoding="UTF-8"?>
<svg id="Layer_1" xmlns="http://www.w3.org/2000/svg" version="1.1" viewBox="0 0 1080 1080">
  <!-- Generator: Adobe Illustrator 29.8.2, SVG Export Plug-In . SVG Version: 2.1.1 Build 3)  -->
  <path d="M703.21,76.37c12.64-3.08,26.7.25,36.28,9.16,6.49,5.64,10.21,13.75,11.92,22.05,8.97.9,17.95,1.71,26.95,2.2,4.48-6.05,10.5-11.23,17.83-13.38,8.13-2.75,17.19-1.21,24.57,2.91,6.7,3.71,11.26,10.22,13.98,17.24,10.41,1.41,20.75,3.43,30.92,6.05,5.12,1.45,10.85,4.57,11.58,10.4,1.4,10.7-2.2,21.23-2.02,31.93,12.54,10.3,16.69,27.47,15.38,43.07-.57,18.72-9.38,36.6-22.86,49.42-.34,9.8-.95,19.59-2.04,29.34,4.93.03,9.9-.23,14.8.6-.11,11.53-.17,23.08-1.04,34.6-1.15,14.81-1.4,29.73-3.72,44.44-14.99.36-30.13-1.34-44.98,1.43-14.23,1.87-28.24,5.34-41.74,10.22-7.86,2.75-15,7.3-21.26,12.74-3.61,3.27-6.97,7.28-7.84,12.21-3.6,18.84-1.17,38.05-.04,57.01.75,7.05.75,14.21,2.09,21.19,9.65,7.49,20.49,13.89,28.2,23.6,3.9,4.94,7.87,10.6,7.51,17.21-.13,5.36-3.83,9.94-8.49,12.28-7.63,3.8-16.32,4.75-24.73,5.12,1.12,14.13,2.46,28.29,3.58,42.39,5.19,3.91,10.97,7.04,16.18,10.96,7.08,5.41,14.72,11.15,18.1,19.72,2.49,5.62,2.08,12.88-2.6,17.27-6.98,6.85-17.4,7.48-26.59,8.59.16,12.25,1.97,24.39,2.37,36.62.14,7.34,1.43,14.58,1.94,21.89.96,14.4,2.48,28.74,3.63,43.11,5.79,51.92,13.37,103.73,14.73,156.02.96,10.03.13,20.08-.36,30.11-.91,8.03-2.38,16.38-7.32,23.02-5.66,8.71-15.71,12.93-25.37,15.5-24.28,7.11-49.78,7.27-74.65,10.88-10.4,1.08-20.74,2.79-31.19,3.34-13.72,1.67-27.58,1.91-41.29,3.46-.6,32.58-2.09,65.14-3.24,97.71h-20.73c1.03-32.16,1.44-64.34,2.73-96.49-26.45,1.86-52.93,2.87-79.38,4.77-6.89.1-13.75.6-20.61,1.19-.88,14.81-1.67,29.63-2.15,44.47-.73,15.35-1.75,30.69-1.92,46.06h-20.71c-.11-29.83.83-59.64,1.77-89.45-16.42,1.23-32.91,1.21-49.32,2.71-21.69.91-43.4,1.36-65.06,2.89-25.36.66-50.65,2.6-75.99,3.85-29.04,1.62-58.08,3.69-87.16,4.91-11.95.61-23.97.91-35.92-.06-6.37-.47-13.44-.86-18.55-5.18-5.03-3.88-6.34-10.68-6.54-16.67.53-14.13,2.9-28.08,5.11-42.02,3.27-15.98,5.91-32.11,10.39-47.82,2.8-10.04,4.75-20.9,11.56-29.16,3.73-3.68,8.2-6.86,13.22-8.49,6.37-1.47,13.65-2.42,19.53,1.13-.93,7.25-1.1,14.56-2.06,21.81-1.12,11.32-1.45,23,1.78,34.02,1.5,5.47,5.73,9.89,10.83,12.2,4.87,2.51,10.5,2.11,15.81,2.41,14.83-.7,29.61-2.51,44.2-5.24,14.35-2.72,29.59-5.78,40.86-15.76,4.72-4.03,7.69-9.62,9.69-15.4,3.75-12.07,4.27-24.76,4.8-37.29,1.11-18.11,1.97-36.24,2.25-54.39,1.24-28.01,2.28-56.02,2.68-84.05.57-38.99,1.42-77.97,1.82-116.95.32-53.99.47-107.98-.03-161.97-.47-41.71-2.22-83.39-3.19-125.08-.82-18.3-1.6-36.61-1.78-54.93-.56-24-1.22-48.03-.55-72.04-11.84,13.6-22.03,28.51-32.84,42.93-18.09,25.5-36.82,50.55-55.17,75.87-1.54,2.12-2.97,4.32-4.34,6.57-1.81-8.96-2.36-18.1-3.56-27.15-1.6-9.88-1.19-19.92-1.67-29.87-8.74,9.57-17.39,19.24-25.6,29.29-5.52-26.61-9.14-53.6-10.91-80.71,9.54-6.24,19.89-11.06,30.12-16.04,22.58-10.51,45.5-20.31,68.85-29,23.15-8.75,46.55-16.97,70.52-23.22,18.02-3.81,35.82-8.72,54.05-11.57,8.89-1.92,18.1-2.49,26.89-4.64,7.82-12.83,22.89-20.66,37.84-20.19,10.53-.45,20.89,4.78,27.74,12.61,7.24-.45,14.45-1.4,21.72-1.67,1.86-3.67,3.49-7.5,6-10.78,5.01-6.86,12.35-11.82,20.35-14.54,9.88-2.73,20.99-1.77,29.77,3.74,7.08,4.19,12.07,10.99,15.42,18.37,5,.69,10.04-.38,15.07-.21,21.54.06,43.11-.49,64.64.55,1.54-3.94,2.97-7.98,5.36-11.52,5.28-8.2,13.81-13.98,23.2-16.43h0Z"/>
  <path d="M474.3,104.5c5.72-.05,11.06,2.46,15.8,5.44-3.24.37-6.47.8-9.69,1.35-2.05-2.26-4.09-4.51-6.11-6.79ZM815.28,105.37c3.85,2.29,7.05,5.51,9.35,9.35-3.94-.3-7.96-.29-11.79-1.35.93.01,2.77.02,3.69.03-.41-2.68-.84-5.35-1.25-8.03ZM580.91,127.87c3.93-4.84,3.81-11.39,6.36-16.85,2.7,9.52,1.48,20.51-4.55,28.57-3.53,5.03-8.89,8.67-14.82,10.23-8.8,2.27-18.41.43-25.98-4.53,14.6.17,29.97-5.55,38.99-17.42ZM730.87,126.86c4.79-3.76,7.82-9.16,10.94-14.27,1.21,14.36-11.79,27.29-25.73,28.25-10.7,1.32-23.02-3.25-28.23-13.07,5.89,3.37,12.27,6.1,19.13,6.52,8.61,1.16,17.17-2.22,23.89-7.43h0ZM311.22,161.58c6.64-2.73,13.45-5.17,20.24-7.53-17.32,9.55-34.1,20.03-50.84,30.57-27.1,17.12-52.66,36.61-76.68,57.82-.29-1.93-.57-3.86-.87-5.79,8.83-7,17.3-14.45,26.19-21.38,15.27-12.04,31.46-22.87,48.14-32.85,11.44-6.66,23.05-13.12,33.82-20.84h0ZM808.14,212.18c4.89-7.21,9.39-15.51,8.24-24.55,4.76,15.1.24,31.63-8.5,44.35-6.34,9.31-16.54,16.35-27.89,17.48-7.47,1.04-15.05-1.3-21.41-5.12-11.52-7.59-18.03-21.78-17.52-35.42,4.43,6.18,9.97,11.48,16.05,16.02,7.1,4.99,16.3,6.27,24.72,4.64,10.72-1.84,20.11-8.61,26.31-17.4h0ZM880.06,190.86c3.44,17.39-.83,36.18-11.4,50.43.05-6.34.94-12.64,1.17-18.98,3.62-3.14,7.46-6.29,9.89-10.48,1.19-6.92.38-14,.34-20.97h0ZM242.07,235.12c17.81-14.68,35.32-29.87,54.8-42.33-3.6,3.56-6.26,8-9.88,11.49-1.72.77-3.44,1.61-4.84,2.89-14.79,13.04-29.64,26.07-43.32,40.29.64-4.13-1.08-9.81,3.24-12.34h0ZM517.96,231.94c7.12-5.83,11.58-14.09,14.4-22.72,2.86,9.1,1.4,19.37-3.32,27.62-3.9,7.43-10.96,12.8-18.67,15.82-11.05,3.74-24.34,2.11-33.08-6-5.18-5.03-9.98-10.91-12.09-17.94,6.27,4.21,12.83,8.44,20.39,9.82,11,2.78,23.59.94,32.37-6.6ZM663.3,230.35c8.18-3.79,14.37-10.49,20.17-17.19.03,14.18-9.04,27.97-22.3,33.13-14.79,6.55-34.11,2.7-44.19-10.26-2.91-3.61-5.23-7.72-6.54-12.18,6.78,4.96,14.33,9.31,22.75,10.61,10.12,1.51,20.89.53,30.11-4.11Z" fill="#ac3206"/>
  <path d="M689.6,95.58c6.93-8.66,19.05-12.75,29.81-10.2,12.39,2.58,23.32,14.12,22.4,27.21-3.12,5.11-6.15,10.51-10.94,14.27-6.72,5.21-15.28,8.59-23.89,7.43-6.86-.42-13.24-3.15-19.13-6.52-2.32-1.82-2.9-5.01-3.67-7.7-2.18-8.44-.1-17.76,5.42-24.49ZM536.73,101.61c6.83-9.11,19.02-14.41,30.28-11.58,10.03,2.08,18.95,10.75,20.26,20.99-2.55,5.46-2.43,12.01-6.36,16.85-9.02,11.87-24.39,17.59-38.99,17.42-12.27-10.53-14.85-30.64-5.19-43.68h0ZM786.36,110.57c3.95-3.45,8.49-6.45,13.73-7.42,5.15-1.27,10.44.17,15.19,2.22.41,2.68.84,5.35,1.25,8.03-.92-.01-2.76-.02-3.69-.03-8.8-1.18-17.68-1.64-26.48-2.8ZM446.04,115.38c7.48-7.15,17.91-11.22,28.26-10.88,2.02,2.28,4.06,4.53,6.11,6.79-11.52.79-22.91,2.71-34.37,4.09ZM270.82,177.98c13.18-6.03,26.8-11.28,40.4-16.4-10.77,7.72-22.38,14.18-33.82,20.84-16.68,9.98-32.87,20.81-48.14,32.85-8.89,6.93-17.36,14.38-26.19,21.38-.51-4.02-.74-8.08-1.25-12.1,5.19-3.7,10.07-7.82,15.17-11.64,14.34-10.65,29.85-19.55,45.02-28.94,3.1-1.74,6.1-3.68,8.81-5.99h0ZM741.06,208.92c-.44-21.59,15.49-42.79,36.93-46.99,13.16-2.05,27.06,4.77,33.9,16.14,1.7,3.06,3.61,6.13,4.49,9.56,1.15,9.04-3.35,17.34-8.24,24.55-6.2,8.79-15.59,15.56-26.31,17.4-8.42,1.63-17.62.35-24.72-4.64-6.08-4.54-11.62-9.84-16.05-16.02h0ZM632.79,175.71c10.4-4.48,22.89-3.1,32.29,3.15,12.05,6.63,19.56,20.58,18.39,34.3-5.8,6.7-11.99,13.4-20.17,17.19-9.22,4.64-19.99,5.62-30.11,4.11-8.42-1.3-15.97-5.65-22.75-10.61-6.12-18.67,4.37-40.57,22.35-48.14ZM873.79,176.83c3.46,3.89,4.95,9.1,6.27,14.03.04,6.97.85,14.05-.34,20.97-2.43,4.19-6.27,7.34-9.89,10.48.8-15.2,2.78-30.3,3.96-45.48ZM465.86,202.82c4.55-11.53,15.96-19.63,28.14-21.13,17.17-1.81,34.78,10.26,38.45,27.32l-.09.21c-2.82,8.63-7.28,16.89-14.4,22.72-8.78,7.54-21.37,9.38-32.37,6.6-7.56-1.38-14.12-5.61-20.39-9.82-.12-.08-.36-.25-.48-.33-2.06-8.33-2.75-17.65,1.14-25.57h0ZM282.15,207.17c1.4-1.28,3.12-2.12,4.84-2.89-6.37,7.71-12.58,15.55-18.97,23.23-3.65,1.67-6.07,4.95-8.79,7.74-6.92,7.3-13.7,14.73-20.75,21.9.09-3.23.21-6.46.35-9.69,13.68-14.22,28.53-27.25,43.32-40.29h0ZM586.33,316.95c8.89,13.69,17.18,27.75,25.44,41.83,8.21-3.73,16.72-6.72,25.09-10.06,3.08-1.12,6.04-2.61,9.26-3.31,3.17-.53,6.33-1.16,9.43-2.07,21.98-6.1,44.2-11.53,66.78-14.96,21.4-3.61,43.03-5.45,64.6-7.71,12.32-.62,24.68-.96,37.03-.8,11.89.52,23.81.56,35.71.22-.5,6.87-1.85,13.64-2.46,20.5-25.73-.09-51.46-.58-77.17.13-62.62,2.78-125.39,15.84-182.03,43.28-4.32-7.86-7.97-16.05-11.87-24.12-3.76-8.21-8.18-16.14-11.18-24.67-14.79,7.07-28.98,15.36-42.93,23.97-6.5,3.78-12.53,8.34-19.18,11.85,1.25-1.5,2.51-3,4.02-4.25,10.61-8.39,21.06-17.01,31.97-25.01,11.99-9.01,24.83-16.81,37.49-24.82h0Z" fill="#f94809"/>
  <path d="M706.39,90.49c5.08-2.14,11.44,1.1,12.55,6.53,1.43,6.73-2.73,13.06-6.93,17.93-3.15,3.5-6.99,7.12-11.97,7.35-5.49.39-10.27-4.88-9.83-10.27-.76-9.92,6.95-18.88,16.18-21.54ZM554.3,94.54c2.72-1.06,5.79-1.4,8.65-.68,4.12,1.17,6.79,6.11,5.18,10.15-2.1,5.74-6.52,10.2-10.58,14.61-3.22,3.1-6.25,6.84-10.65,8.26-4.23,1.59-9.23-1.47-10.07-5.83-.99-4.61,1.23-9.01,3.18-13.04,3.23-5.78,8.15-10.84,14.29-13.47h0ZM727.25,99.37c1.45-.31,3.53-.62,4.5.84,3.96,5.47,1.97,14.84-4.75,17.08-2.64.83-7.34.42-6.94-3.34.7-5.37,3.14-10.95,7.19-14.58ZM800.23,108.15c1.46-5.75,11.53-4.14,11.67,1.48-3.71,2.09-8.49,1.14-11.67-1.48ZM465.14,110.94c-2.31-3.99,4.13-4.87,6.81-4.14.48.56,1.46,1.66,1.95,2.22-2.13,2.29-5.9,3.21-8.76,1.92ZM795.26,106.96c1.36-.56,2.57-.22,3.62,1.02-.82,1.42-2.26,1.75-3.75,1.85.03-.72.1-2.15.13-2.87ZM571.28,108.27c3-1.95,7.26.49,7.31,4.01,1.31,5.72-2.36,11.29-7,14.29-2.92,1.89-7.27.93-8.91-2.18-1.15-2.79-.05-5.83,1.46-8.24,1.88-3,4.09-5.99,7.14-7.88h0ZM460.1,109.31c.69-.02,2.05-.06,2.73-.08-.08.56-.24,1.68-.32,2.23-.56.08-1.69.23-2.26.31-.03-.62-.11-1.85-.15-2.46ZM775.41,168.75c3.76-.76,8.08-.88,11.3,1.55,3.41,2.25,4.43,6.92,3.27,10.68-1.87,6.39-5.92,11.84-10.12,16.9-4.84,5.7-11.09,11.16-18.9,11.73-4.12.49-7.68-2.89-8.89-6.59-1.33-4.32-.81-9.05.68-13.27,4.09-9.77,12.21-18.26,22.66-21h0ZM217.93,202.03c17.17-8.98,35.01-16.61,52.89-24.05-2.71,2.31-5.71,4.25-8.81,5.99-15.17,9.39-30.68,18.29-45.02,28.94-5.1,3.82-9.98,7.94-15.17,11.64-.28-3.93-.56-7.86-1.09-11.77,5.21-4.37,11.37-7.34,17.2-10.75h0ZM640.4,179.64c4.15-.92,9.19-.51,12.08,2.97,2.76,3.06,2.58,7.61,1.54,11.34-2.36,7.32-6.25,14.08-10.8,20.25-3.14,3.66-7.09,7.52-12.21,7.69-4.19.45-8.29-1.96-10.47-5.46-2.72-4.08-2.71-9.32-1.89-13.98,2.81-10.55,11.08-19.9,21.75-22.81ZM799.28,180.16c2.51-1.68,5.99.14,6.82,2.86,2.5,7.2.56,16.73-6.36,20.78-3.3,1.52-8.42,2.73-10.64-1.04-1.98-4.09.71-8.44,2.44-12.13,2.05-3.8,4.04-7.99,7.74-10.47ZM490.33,187.52c5.12-2.35,12.03-.63,14.44,4.73,2.17,5.24.42,11.07-1.48,16.13-2.19,6.21-5.21,12.39-10.32,16.73-3.83,3.41-10.44,3.86-14.22.15-4.54-3.96-7.22-10.09-6.2-16.14,1.51-9.66,9.01-17.76,17.78-21.6h0ZM874,189.11c1.19.08,2.39.18,3.61.27.13,3.87,1.28,8.47-1.62,11.62-.59-.22-1.77-.67-2.36-.9-.13-3.67-.13-7.35.37-10.99ZM666.2,192.43c3.11-.1,6.26,2.38,6.56,5.55.48,4.52-.47,9.22-2.68,13.19-2.15,3.69-7.1,6.14-11.09,3.87-3.88-2.66-3.75-8.17-2.31-12.16,1.48-4.51,4.14-10.05,9.52-10.45ZM515.25,197.33c2.79-.78,6.08.17,7.22,3.03,2.48,5.89-.35,13.22-5.55,16.7-4.45,2.25-9.73-2.41-8.79-7.1.39-4.8,2.38-10.59,7.12-12.63h0ZM873.27,204.22c1.48-.71,3.08-.73,4.59-.05-.12,1.58.23,3.83-1.88,4.15-.68-.15-2.02-.44-2.69-.59-.01-1.17-.02-2.34-.02-3.51ZM505.72,224.49c-2.54-1.6-.02-4,2.19-3.45.05,1.5.11,4.36-2.19,3.45ZM259.23,235.25c2.72-2.79,5.14-6.07,8.79-7.74-10.45,13.17-20.67,26.55-30.34,40.31.33-3.55.63-7.1.8-10.67,7.05-7.17,13.83-14.6,20.75-21.9h0ZM780.9,315.66c26.21-4.57,52.73-8.34,79.4-7.49-.06,3.98-.43,7.94-.63,11.92-11.9.34-23.82.3-35.71-.22-12.35-.16-24.71.18-37.03.8-21.57,2.26-43.2,4.1-64.6,7.71-22.58,3.43-44.8,8.86-66.78,14.96-3.1.91-6.26,1.54-9.43,2.07,29.36-11.75,60.49-18.41,91.72-22.81,14.35-2.35,28.79-4.11,43.06-6.94h0ZM547.45,339.51c11.8-9.17,23.83-18.11,36.61-25.87.75,1.09,1.5,2.2,2.27,3.31-12.66,8.01-25.5,15.81-37.49,24.82-10.91,8-21.36,16.62-31.97,25.01-1.51,1.25-2.77,2.75-4.02,4.25-4.78,3.75-10.11,6.77-14.9,10.52,15.69-14.94,32.67-28.42,49.5-42.04h0Z" fill="#fb7f53"/>
</svg>