<svg viewBox="0 0 545.4 545.4" height="192.4mm" width="192.4mm" xmlns="http://www.w3.org/2000/svg" id="a"><defs><style>.o{fill:#010101;}.p{fill:#f7f8f6;}.q{fill:#fcfdfa;}.r{stroke:#000;stroke-miterlimit:10;stroke-width:1px;}.s{fill:#f7f7f6;}.t{fill:#fff;}.u{fill:#fcfefb;}.v{fill:#0d0e0d;}.w{fill:#e71f00;}.x{fill:#f5f6f4;}</style></defs><g id="b"><rect height="550.3" width="550.3" y="0" x="-4.9" class="r"></rect><g id="c"><g id="d"><rect height="19.8" width="556.9" y="64.1" x="-4.9" class="w"></rect><rect height="19.2" width="556.9" y="37" x="-4.9" class="w"></rect><path d="M62.6,61.3c-5.4-5.5-9.9,8.9-7.4,11,3.2-.3,8.9,0,11,2.8-1.5,4.4-3.1,17-9.6,17.3-8.2,0-19.3,1.6-13.2-10.3,5.7,0,8.8-1.5,5.7,5.6,5.7,5.7,10.4-9.1,7.9-11.5-14.7,2.4-9.7-8.2-7-16.8,7.1-4.8,25.8-5.4,18.3,7.6-5.7,0-8.8,1.5-5.7-5.7Z" class="t"></path><path d="M49.7,131.1c-1.2,6.3-2.5,10-9.8,8.5l10.3-35.9c14.3-4,1.5,13.4,1.9,19.1l14.2-19.1c20-.7-12.8,4.5-2.4,35.9-11.1,2.9-7.5-8-8.8-14.7l-5.4,6.1h0Z" class="t"></path><path d="M47.3,186.9c4.4-7.5,2.4-27.7,1.4-35.9,12.7-3.5,6.3,10.9,7.4,17.6,3.5-5.1,8.4-21.9,17.5-17.6l-15.8,24.1c-1.9,6-1.8,14.2-10.6,11.8h0Z" class="t"></path><path d="M63.8,209.5c-3.2,4.3-5.3,38.9-16.5,32.1l9.2-32.1c-3.2-.6-9.1,1.9-5.9-3.8h21.3c.3,4.9-4.8,3.7-8,3.8h0Z" class="t"></path><path d="M50.3,252.9c3.6.4,18.7-1.5,20.7,2.8-1.5,4-3,17.3-9,17.4l.2,15.6c-11.1,3.1-6.1-9.2-7.3-15.3-4.9-3.1-6.1,13.6-7.5,15.3-17.1,7.9,4.9-32.2,2.9-35.9h0ZM60,268.8l3.2-11.2c-7.7-6-8.7,7.9-10.3,12.2,1.5,0,6,.4,7.1-.9h0Z" class="t"></path><path d="M63.2,336c-9.3,1.3-7.5-2-6.4-9.3-12.8-2.6-4.9,12.1-18.2,9.3,5.3-6.9,13.7-42.9,27.8-35.9l-3.1,35.9h0ZM59.7,304.8l-8,18.1c9,4.3,6.2-14.3,8-18.1Z" class="t"></path><path d="M57.5,347.3h7.4c-3.4,4.1-6.2,43.1-17.6,35.9l10.3-35.9h0Z" class="t"></path><path d="M43.3,430.4c3.4-4.1,6.1-43.1,17.6-35.9l-9.2,32c2.8,1,12.9-2.8,8.7,3.9h-17.1Z" class="t"></path><path d="M62.6,446.5c-5.4-5.5-9.9,8.9-7.4,11,3.2-.3,8.9,0,11,2.8-1.5,4.4-3.1,17-9.6,17.3-8.2,0-19.3,1.6-13.2-10.3,5.7,0,8.8-1.5,5.7,5.6,5.7,5.7,10.4-9.1,7.9-11.5-14.7,2.4-9.7-8.2-7-16.8,7.1-4.8,25.8-5.4,18.3,7.6-5.7,0-8.8,1.5-5.7-5.7Z" class="t"></path></g></g></g><g id="e"><g id="f"><path d="M88.3,545.4c-5.8,4.8-4-49.7-5.4-50.1,4.2,6.3,1.1,19.5,3.8,27.8v-32.7l1.6,55Z" class="x"></path><path d="M97.5,545.4l-4.1-37.6c-1,.3,8.4,40.6,4.1,37.6Z" class="x"></path><path d="M95.4,545.4c-2.2,1.9-2.7-20-3.3-20.2l3.3,20.2Z" class="x"></path><path d="M98.1,481.1l9.3,16.9c.3-.7-12.7-16.9-9.3-16.9Z" class="x"></path><path d="M206.5,457.1l19.1,30c-5.3-4.1-20.4-25-19.1-30Z" class="x"></path><path d="M345.4,545.4c-12.6-7.7,2.8-67.7-6.3-89.9-29.6,53.8-35.3-2.7-39.5,89.9-1.5,1.2,3.8-61.3,3.4-61.2,27.5-7.8,37.2-26.9,35-52.2,11.8,35,7.5,76.5,7.4,113.4Z" class="x"></path><path d="M260.9,545.4c-6.5,4.9,1.3-51.4-.3-51.8l.3,51.8Z" class="x"></path><path d="M225,545.4c-6.5,5,1.3-55.3-.3-55.6l.3,55.6Z" class="x"></path><path d="M185.8,545.4l3-43.1c-.9.3.7,46-3,43.1Z" class="x"></path><path d="M453.8,545.4c7.2-15,18.5-37.5,29.7-48.5,2.6,5.9-9.9,16-12.7,22.7-2.1,3.9-16.3,33.1-12.1,19-.8.8-2.7,8.3-4.9,6.8Z" class="x"></path><path d="M396.6,545.4c-3.9,3,.7-34.7-.3-34.9l.3,34.9Z" class="x"></path><path d="M399.3,545.4c-4,2.9,1.7-26.4.8-26.7l-.8,26.7Z" class="x"></path><path d="M456.5,477.8c0-8.8,41.3,17.5,38.1,22.9-24-13.9-48.4-27.5-75.2-35.4,5.9-2.5,35.6,13.8,37,12.5h0Z" class="x"></path><path d="M486.5,512.1c-5.6,9.5-12.8,19.1-20.2,27.2,6.5-8.9,11.3-20.5,20.2-27.2Z" class="x"></path><path d="M412.9,480.5l-6,4.4,5.7-1.6c-21,14.2-20.7,7.5.3-2.7h0Z" class="x"></path><path d="M370.4,458.2l11.4,24.5c-1.4,2.5-14.1-24.8-11.4-24.5Z" class="x"></path><path d="M78.5,478.9c42.5-24.1,102-31.1,138.4-69,33.1,6.4,64.9,12.4,97.8-1.3,52,33.3,153.9,44.2,183.4,80.6,12.3,13.4,12.8,37.2,20.7,54-8.2-14.6-10.9-35.6-20.1-50-27.5-29.9-86.7-36.4-123-53.6.3,1.9,29.3,40.1,23.4,40.3-8.9-5.8-24.1-48.3-41.4-46.9-5,29-7.8,48.6,23.4,60,5-1.2,21.5-15.1,25.1-14.8,8.3.8-19.1,17-21.5,16.9-.5,1.1,8.6,5,9.3,5.7,3.6,4.8,1.2,47.1-9.8,44.4,7-44,10.4-36.2-27.9-61.2l-2.1,60.6c-12.2-21.1-2-81.3.5-113.2-45.7-32.3-63.1-.7-109.5-8.4-17.9-12.2-31-13.7-42.4,7.7-17,24.1,23.4,54.2,12.4,54.8l-20.1-33.4c-11.4,28-8.4,72.4-18,93.2-10.4-28.7,28.9-94.3-14-50.2-4.6,5.2-21.9,10.9-10.4-.3-20.3,2.1-2.6,45.4-18.1,50,1.4-67.4,11.7-43.3,52.9-80.8,15.3-21.9-26.8,19.3-23.1,3.4-7.3,3.1-52.6,21-34.9,5.8-7.5-1.4,4.6-4.5,5.9-1.5,4.7-3.9,11.9-5.3,17.1-9.6-26.7,19.8-60.7-7.1-42,29.9-7.2,1.6-7.4-24.9-20.2-13.7,6.6,14.8,41.6,58,24.7,66.9-1.4.3-3.1-.5-3.6-2-3.3-28.1-9.1-40.6-26.4-59.6-14.7,3-3.4,62.3-20.7,61.6-3.2.5,9.3-49,8.4-49.6-2.5.9-27,52.2-31.8,49.6-1.5-.2,13.1-25.8,12.8-26.1-.4.4-12.7,26.4-13.9,26.1,5.8-21.3,24.9-47,38.7-66.5v.2Z" class="x"></path><path d="M165.1,460.9c-3.7,5.1-10.2,7.7-16.3,8.2l16.3-8.2Z" class="o"></path><path d="M54.5,517c.7-.5.8,1.2-.3,1.6-.2,0,.2-1.6.3-1.6Z" class="o"></path><path d="M76,488.7c.3.2.3.3,0,.5v-.5Z" class="o"></path><path d="M373.7,545.4l2.4-21.8c-.8.5,1,24.4-2.4,21.8Z" class="x"></path><path d="M165.1,545.4c.9-4.6,4.1-57.1,3.3-24.8,0,6.1,3.2-.6,2.7-4.1-2.1,3.4,5.5,35.1-6,28.9h0Z" class="x"></path><path d="M149,499.6c.5.6-.8,1.2-1.1,1.6-.7,0,.8-1.4,1.1-1.6Z" class="x"></path></g></g><g id="g"><g id="h"><path d="M350.8,101.4c2.8,2.6,18.9,19.5,17.9,22-10.8-3.3-21.3-19.5-32.9-25.8-19.4-17.7-53.1-18.5-80.4-12.5,14.1.9,31.5-3.6,45.2,3.3-16.7,1.7-38.7-5.1-55.4,4.9-1.5.5-5.2-1.4-6.8,2.2l16.3-2.2c-14.3-2.4,34-1.7,43.2.6,22.6,6.9-50.6-2.1-61.9,3.8-8.5,3.2-22.1,33.2-24.1,42.4.8-13.7,11-26.3,14.7-37.6-9.5,8.7-20.1,17-25.2,29.3-5.1,12.3-4.7,22.5-9.6,19.2-8.6-5.8,11.7-33.7,16.5-38.6-42,17-40.3,53.7-37,92.4-1.2,326.5,246,262.2,214.2-36.2,4.5,40.7,7.5,18.1-.7-6.7-4.8-20.3-9.6-39.3-21.2-57.1,50.3,56.7,29.4,190.2,3.8,257.4-14,14.3-28.3,35.3-44.7,49.6,2,.4,19.7-9.8,20.1-7.6-16.8,11.5-37.1,19.8-57.1,24.1-4.1.9-19.4.9-15.4,5.6-105.3-53.1-110.6-155.6-109.5-281.1l1.6,23.4c-4.6-74.5,126-135.1,188-74.6l.4-.2Z" class="p"></path><path d="M237.6,414.6c8.2.9-15.3-11-12-13.6l33.2,24.8c-5.1,1.6-15.9-7.5-21.3-11.2h0Z"></path><path d="M161.3,235.9l1.6-40.9c2.5,10.1.2,55.2-1.6,40.9Z"></path><path d="M166.2,164.6l-1.4,32.7c-1.4-8.9-2.8-28.6,1.4-32.7Z"></path><path d="M219.9,395c1.6,1.4,4,2.5,4.4,4.9-1.9-1.1-3.7-2.7-4.4-4.9Z"></path><path d="M228.9,96.5c-12.5,12.4-30.5,18.8-44.1,30.2,13.6-11.4,27.8-22.9,44.1-30.2Z"></path><path d="M229.4,100.8c.3.5-.4,1.6-1.1,1.6-.5-.9.5-2.6,1.1-1.6Z"></path><path d="M210.3,111.2c.3.8-1.4.8-1.1,0h1.1Z"></path><path d="M225.3,399.9c.3.2.3.3,0,.5v-.5Z"></path><path d="M317.2,91.9c3.6,1.9-1.9,1-3.5-.3,1.9,0,1.8-.6,3.5.3Z" class="p"></path><path d="M319.5,92.6c.3.2.3.3,0,.5v-.5Z" class="p"></path></g></g><g id="i"><g id="j"><path d="M347.5,357.2c1.5-.9,33.7-56.8,26.2-35.4,3.6-4.4,9.2-9,4.4.6-4.9,21.3-36.4,45.1-31.7,62.3-22.3,12-59.4,8.8-79.6,16.1-18.7-8.9-56.8-14.2-60.9-29.9-63.7-125.5,7.8,40.7,141.7-13.6h0Z" class="s"></path><path d="M345.9,382.2c-9.4-8.5,27.5-43,32.1-59.9-.6,20.4-24.2,40.1-32.1,59.9Z" class="v"></path><path d="M345.9,383.3c23.5,9-68.9,16.7-74.7,15.3,13.3-6.4,56.3-2.9,74.7-15.3Z" class="v"></path><path d="M347.5,357.2c-6,12.4-36.4,7.9-48.5,9.3l48.5-9.3Z" class="v"></path><path d="M181.4,320.1c-1.3,8.5,26.3,42.3,26.4,51.8-2.4-.6-31.3-51.5-26.4-51.8Z" class="v"></path><path d="M202.7,340.8c-4.3-2.9-28-25.6-21-26.7,6.3,4.6,14.2,21.1,21,26.7Z" class="v"></path><path d="M268.5,400.8c-.7,2.7-45.2-16.2-46.9-16.3,15.4,5.7,31.7,9.7,46.9,16.3Z" class="v"></path><path d="M218.5,383.3c-2.9,9.2-8.9-5.8-9.8-9.3,4.9,3.6,3.8,6.6,9.8,9.3Z" class="v"></path><path d="M276.1,381.1c-21.7,21.8,2.7-16.7-19.1,8.2.7-10.1,1.3-20.5-6.5-4.7-4.8,2.3-1.7-14.3-6.2-13.2-2.9.7-1.5,9.6-4.2,10.8.4-14.6-6.6-7.1-7.1-7.6,1.8-6.9-12-2.5-4.1-7.6,1.1-12,7.5,6.5,12.2,3.5-3.3-4.6,5.6-3.2,6-2.4-1.4,3.6,2.8,14.5,5.2,6,14.6-2.7,1.4,13.4,15.6,1.5,4.6-1.8,2.4,1.2,3.9,2.4,9.3,5.7,7.9,4.5,14.2-2.2,7.1-1.8,3.3,3.2,7.6,5.4,4.5-2.8,1.5-7.2,8.4-5.4.3.2.4,5.5,4.7,6,5.1-.4,4.9-10.8,9.8-2.7,3.9,2.4,5.5-2.4,7.7-2.8s8,1.3,11.7-.8c-2.3,5.2-7.2-1.8-7.1,6.8-9.6-11.2-2.6,3.3-9.5,2.2-4.5-3.4-7.6-9.6-6.9,1.1-4.6-.9-6.3-2-10.1,1.6-.9,0-3.9-16.9-7.3.6-8.8-9.2-7.7-14.9-8.4,1.1-3.4-4.7-7.2-1.7-10.6,1.1v-8.9Z" class="v"></path><path d="M209.2,357.2c-4.5-8.1,5.2-.5,2.2,2.7-.3.4-4.4-1.8-2.2,6.5l-20.4-34.3,20.4,25h0Z" class="v"></path><path d="M229.4,383.3c-4.2-1.3-12.4-1.8-13.9-6.5,1.7,0,2.6,2.5,3.3,2.7.6-2.7,12.8,3.7,10.6,3.8h0Z" class="v"></path><path d="M254.3,366.4c1.7,5.8-51.5-13.1-48.6-18.8l48.6,18.8Z" class="v"></path><path d="M222.8,359.4c.5.7.3,9.8-1.3,10.3-4.5,1.3-6.6-11.5-7.6-11.4l-2.4,7.1c-2.3-11.1,4.5-9.2,11.4-5.9h0Z" class="v"></path><path d="M341.5,366.4c1.7,6.7-48.7,3.8-51.2,4.9l51.2-4.9Z" class="v"></path><path d="M227.2,379.5c1.6-1.4,5.1.8,6.5,1.9l-6.5-1.9Z" class="v"></path></g></g><g id="k"><g id="l"><path d="M392.8,238.7c1,1,10-7.7,11.4-1.9.9,3.6-2,4.4-2.2,5-1.4,6.1-1.7,11.2-5.4,17,.9.9,16.3-10.6,6,3.3,1.4,1.1,12.2-5.1,14.7-1.8,1.6,4.1-8.1,5.9-11.2,12.2-.3,1.8-.9,6.3-4.1,5.4,8,12.1-19.7,10.9-27.3,12.7-2,.4-35,9.4-32,11.8,5.8-.3,24-9.5,15.5,4.3l-50.3,14.2,25.6-13.3-9.4-.7c-3.7.8-18.4,12.6-7.5-1.2-8.2,2.8-5.8-3.6-7.1-4.9-17-1.9,34.6-15.9,37.9-20.8,18.7-15.6,40.7-42.8,56.7-62.1l-11.2,20.7h0Z" class="u"></path><path d="M176.6,268.5c-.2-3-1.2-41,6-25.3.5,1.1-1.8,17,2.7,9.5,5.1,8-6.9,19.5,6.5,21.8-.3-5.4-2.4-10.1.8-15.3,10.7-.3.8,20,12,20.7-3.5-10.7,0-36.9,9.8-12.5,2.4,6.9-.3,19.1,8.2,19.6.6-.2.2-2.3,1.2-2.7,2.5.5,20.3-.2,12.7,6.3.2,3,19.7,6.1,23.2,8.4s0,5.4.8,6.6,9.2,1.4,6.6,7.4c-5.9,13.5-40.5-12.8-48.5-15-.6,2.6,4.1,21.5.9,21.7-4.7.3-6.9-31.7-17.5-29.9-1.4,3.7,8.9,26.2,0,23.3s-4.9-23.9-7.1-27-8.9-3.7-10.5-4.5c-2.1.9,2.5,29.7-5.9,23.5-2.7-2-2.5-24.6-4.3-27.7s-10.5-3.3-12.3-4.3c-3.5-2-25.1-33.3-23.6-35,11.2,12.3,21.3,25.6,38.1,30.5h0Z" class="q"></path></g></g><g id="m"><g id="n"><path d="M212.7-67.8c.7,3.2,1.1,6.5,1.4,9.8,1.8,42.2,4.3,86.3,8,127.1.4,4.5,1.7,17.2,5.7,7.5,8-42.2,15-85,21-128.4.6-5.7,1.9-11.1,3.8-16,12.4-.5,26.1-.6,38.5,0,1.4,5,2.1,10.3,2.1,15.8,1.3,38,2.9,76.6,5.3,114.1.4,6.9,2.6,27.1,6,31.7,1.1,1.4,2.3,0,2.9-1.4,2.5-5.1,4.5-11.2,6.2-17,12.6-45.1,24.6-90.9,34.4-137.9.4-1.9,1.1-3.6,1.9-5.3,4.5-.2,9.7-.3,14.1,0,.2,1.3.4,2.7.5,4.1s.2,2.7.2,4c-1.3,39.4-3.6,77-6.9,115.5-.7,9.6-1.3,19.3-1.7,28.9,0,2.5-.2,5.1-.2,7.6,0,4.3.6,8.5,3.9,3.5l53.1-162.9,1.3-.6c3.6-.3,8-.2,11.7,0l-.4,6.7c-9.6,65.1-19.1,130.1-25.7,195.4-1,12.5-6.9,41-9.7,52.9-12.8-29-37.8-39.5-61-49.7-22.5-9.9-43.5,16-67.2,22.1-22.1,5.7-20-9.8-44.3-18.5-3.2-1.1-8.4,4.7-9.5,4.8-2.8.4-6.2,21.9-7.5,26-4.3,13.8-27.6-10.2-30.9,4.1-.2-1.1-.4-2.1-.5-3.2s-.2-2.1-.2-3.2c.9-16.7,2.4-33.2,4.2-49.8,8.2-59.5,12.9-119.6,15.4-180.2.3-2.6.8-5.1,1.5-7.5,6.6-.2,16.1-.9,22.4,0h.2Z"></path><path d="M190.3-67.8c-2.5,32.9-3.1,66-5.9,98.9-4.1,49-12.6,95.2-14.6,145-.4,9.1,1.1,26.6-.6,34.3s-3.2,2.9-4.5.4c-2.9-5.3-2.1-42.6-1.7-50.8,1.7-45.5,10.5-90,14.1-135.2,2.5-30.7,2.9-61.7,4.4-92.5h8.8Z" class="t"></path><path d="M425.8-67.8h6.3c-5,35.9-10.6,71.9-15.4,107.9-5.7,42.7-9.5,85.9-15.4,128.5-2.1,14.9-6.7,50.8-10.6,63.3s-3.1,5.3-5.9,2.6c-.7-1.4-.4-3-.4-4.5,0-12.9,7.6-43.7,9.7-59.1,5.6-39.8,9.1-80.2,14.3-120.1,5.2-39.7,11.3-79.2,17.4-118.7h0Z" class="t"></path><path d="M364-67.8c1.8,0,3.6,0,5.4,0-1.1,48-5.1,95.7-8,143.4l46.9-142,1.3-1.4c1.5,0,3.1,0,4.6,0l-53.5,164.1c-1,3-3.9,4.2-5.3,1-2.2-4.7,5.5-91.6,6.2-104.8,1.1-20.1,1.6-40.2,2.4-60.3Z" class="t"></path><path d="M291-67.8h6.3l9,142.2,36.2-141.8c.7-.8,5.9-.3,7.4-.4-4.5,27.2-11.6,53.7-18.5,79.9-5.6,21-14.6,60.5-22.2,78.6-8.6,20.6-11.9-28.8-12.3-33.9-3.6-41.3-2.5-83.3-5.9-124.7h0Z" class="t"></path><path d="M212.7-67.8h1.9l10.5,120,16.9-119c1-1.9,8.4-1,10.6-1.1-8.5,45.3-13,93.4-22.7,138.2s-1,11.5-5.3,10.9-3.7-16.9-4.1-21.2c-4-42.4-5.9-85.3-7.8-127.9h0Z" class="t"></path></g></g></svg>